<?xml version="1.0" encoding="UTF-8" standalone="no"?><!DOCTYPE svg PUBLIC "-//W3C//DTD SVG 1.1//EN" "http://www.w3.org/Graphics/SVG/1.1/DTD/svg11.dtd"><svg width="100%" height="100%" viewBox="0 0 250 250" version="1.1" xmlns="http://www.w3.org/2000/svg" xmlns:xlink="http://www.w3.org/1999/xlink" xml:space="preserve" xmlns:serif="http://www.serif.com/" style="fill-rule:evenodd;clip-rule:evenodd;stroke-linejoin:round;stroke-miterlimit:2;"><path d="M230,230l-62,0c0,0 -3.341,-0.278 -4.938,-2.592c-2.301,-3.334 -0.097,-8.841 4.215,-9.364c0.32,-0.039 0.401,-0.034 0.723,-0.044l50,0l0,-50c0,0 0.873,-6.155 6.362,-5.989c1.11,0.101 1.289,0.198 1.766,0.379c2.032,0.771 3.565,2.716 3.828,4.887c0.039,0.32 0.034,0.401 0.044,0.723l0,62Zm-148,0l-62,0l0,-62c0,0 0.873,-6.155 6.362,-5.989c1.179,0.107 1.495,0.245 2.1,0.518c2.108,0.948 3.451,2.598 3.538,5.471l0,50l50,0c0,0 4.639,0.718 5.728,4.215c1.043,3.345 -1.458,7.311 -5.005,7.741c-0.32,0.039 -0.401,0.034 -0.723,0.044Zm3.129,-99c-2.585,8.671 -10.624,15 -20.129,15c-11.59,0 -21,-9.41 -21,-21c0,-11.59 9.41,-21 21,-21c9.506,0 17.545,6.329 20.129,15l19.742,0c0.416,-1.396 0.973,-2.731 1.655,-3.988l-13.962,-13.962c-7.958,4.303 -18.118,3.094 -24.84,-3.627c-8.195,-8.196 -8.195,-21.503 0,-29.699c8.196,-8.195 21.503,-8.195 29.699,0c6.721,6.722 7.93,16.882 3.627,24.84l13.962,13.962c1.257,-0.682 2.592,-1.239 3.988,-1.655l0,-19.742c-8.671,-2.584 -15,-10.623 -15,-20.129c0,-11.59 9.41,-21 21,-21c11.59,0 21,9.41 21,21c0,9.506 -6.329,17.545 -15,20.129l0,19.742c1.396,0.416 2.731,0.973 3.988,1.655l13.962,-13.962c-4.303,-7.958 -3.094,-18.118 3.627,-24.84c8.196,-8.195 21.503,-8.195 29.699,0c8.195,8.196 8.195,21.503 0,29.699c-6.722,6.721 -16.882,7.93 -24.84,3.627l-13.962,13.962c0.682,1.257 1.239,2.592 1.655,3.988l19.742,0c2.584,-8.671 10.623,-15 20.129,-15c11.59,0 21,9.41 21,21c0,11.59 -9.41,21 -21,21c-9.505,0 -17.544,-6.329 -20.129,-15l-19.742,0c-0.416,1.396 -0.973,2.731 -1.655,3.988l13.962,13.962c7.958,-4.303 18.118,-3.094 24.84,3.627c8.195,8.196 8.195,21.503 0,29.699c-8.196,8.195 -21.503,8.195 -29.699,0c-6.721,-6.722 -7.93,-16.882 -3.627,-24.84l-13.962,-13.962c-1.257,0.682 -2.592,1.239 -3.988,1.655l0,19.742c8.671,2.584 15,10.623 15,20.129c0,11.59 -9.41,21 -21,21c-11.59,0 -21,-9.41 -21,-21c0,-9.506 6.329,-17.545 15,-20.129l0,-19.742c-1.396,-0.416 -2.731,-0.973 -3.988,-1.655l-13.962,13.962c4.303,7.958 3.094,18.118 -3.627,24.84c-8.196,8.195 -21.503,8.195 -29.699,0c-8.195,-8.196 -8.195,-21.503 0,-29.699c6.722,-6.721 16.882,-7.93 24.84,-3.627l13.962,-13.962c-0.682,-1.257 -1.239,-2.592 -1.655,-3.988l-19.742,0Zm30.871,54c0,-4.967 4.033,-9 9,-9c4.967,0 9,4.033 9,9c0,4.967 -4.033,9 -9,9c-4.967,0 -9,-4.033 -9,-9Zm-39.79,-23.938c3.512,-3.512 9.215,-3.512 12.728,0c3.512,3.513 3.512,9.216 0,12.728c-3.513,3.513 -9.216,3.513 -12.728,0c-3.513,-3.512 -3.513,-9.215 0,-12.728Zm97.58,0c3.513,3.513 3.513,9.216 0,12.728c-3.512,3.513 -9.215,3.513 -12.728,0c-3.512,-3.512 -3.512,-9.215 0,-12.728c3.513,-3.512 9.216,-3.512 12.728,0Zm11.21,-45.062c4.967,0 9,4.033 9,9c0,4.967 -4.033,9 -9,9c-4.967,0 -9,-4.033 -9,-9c0,-4.967 4.033,-9 9,-9Zm-120,0c4.967,0 9,4.033 9,9c0,4.967 -4.033,9 -9,9c-4.967,0 -9,-4.033 -9,-9c0,-4.967 4.033,-9 9,-9Zm60,0c4.967,0 9,4.033 9,9c0,4.967 -4.033,9 -9,9c-4.967,0 -9,-4.033 -9,-9c0,-4.967 4.033,-9 9,-9Zm-36.062,-39.79c3.512,3.512 3.512,9.215 0,12.728c-3.513,3.512 -9.216,3.512 -12.728,0c-3.513,-3.513 -3.513,-9.216 0,-12.728c3.512,-3.513 9.215,-3.513 12.728,0Zm72.124,0c3.513,-3.513 9.216,-3.513 12.728,0c3.513,3.512 3.513,9.215 0,12.728c-3.512,3.512 -9.215,3.512 -12.728,0c-3.512,-3.513 -3.512,-9.216 0,-12.728Zm-79.062,-56.21c5.194,0.157 8.422,8.356 2.788,11.313c-0.82,0.43 -1.305,0.642 -2.788,0.687l-50,0l0,50c0,0 -0.718,4.639 -4.215,5.728c-3.345,1.043 -7.311,-1.458 -7.741,-5.005c-0.039,-0.32 -0.034,-0.401 -0.044,-0.723l0,-62l62,0Zm148,62c-0.155,5.137 -8.276,8.574 -11.313,2.788c-0.43,-0.82 -0.642,-1.305 -0.687,-2.788l0,-50l-50,0c0,0 -3.341,-0.278 -4.938,-2.592c-2.301,-3.334 -0.097,-8.841 4.215,-9.364c0.32,-0.039 0.401,-0.034 0.723,-0.044l62,0l0,62Zm-114,-17c0,-4.967 4.033,-9 9,-9c4.967,0 9,4.033 9,9c0,4.967 -4.033,9 -9,9c-4.967,0 -9,-4.033 -9,-9Z" style="fill:#005582;"/></svg>